<svg version="1.1" id="Layer_1" xmlns="http://www.w3.org/2000/svg" xmlns:xlink="http://www.w3.org/1999/xlink" x="0px" y="0px"
	 viewBox="0 0 213 64" style="enable-background:new 0 0 213 64;" xml:space="preserve">
<style type="text/css">
	.st0{fill:#E8991A;}
</style>
<g>
	<path class="st0" d="M61.6,33.5c-0.5,0-1,0-1.5-0.1c-0.5,0-1.1-0.1-1.8-0.1c-1.5,0-3.2,0-5,0.2c-0.4,1.4-1.1,3.1-2,5.2
		c-0.9,2-1.9,3.8-2.8,5.2c-2,3-3.9,4.9-6,5.6c-0.3,0.1-0.6,0.2-0.9,0.2c-0.3,0-0.6-0.1-0.8-0.2s-0.4-0.2-0.6-0.4
		c-0.3-0.3-0.5-0.7-0.5-1c0-0.4,0.1-0.7,0.4-0.8c2.3-1.7,4.7-5.9,7.1-12.7c-0.2,0-0.4,0.1-0.5,0.1c-0.2,0-0.3,0.1-0.5,0.1
		c-0.1,0-0.3,0.1-0.5,0.1s-0.4-0.1-0.6-0.2c-0.2-0.1-0.4-0.2-0.5-0.4c-0.4-0.3-0.5-0.6-0.5-1c0-0.3,0.1-0.6,0.4-0.9
		c0.3-0.3,0.6-0.5,1.1-0.8c0.8-0.5,1.8-0.9,3-1.3l1.3-4.1c1.5-4.8,3-8.1,4.4-10c-1.3-0.1-2.3-0.2-3-0.2c-1.9,0-3.3,0.3-4.2,0.8
		c-0.8,0.5-1.4,1.1-1.7,1.7c-0.3,0.6-0.5,1.1-0.5,1.3c0,0.5-0.2,0.7-0.4,0.9s-0.5,0.2-0.9,0.2c-0.4,0-0.7-0.1-1.1-0.4
		c-0.4-0.3-0.7-0.6-0.9-1c-0.5-0.8-0.7-1.7-0.6-2.7c0.1-1,0.4-1.9,1-2.6c0.5-0.7,1.2-1.3,1.9-1.8c1.4-0.8,2.8-1.3,4.4-1.3
		s3,0.1,4.4,0.2c1.4,0.2,2.7,0.3,4.1,0.5c3.6,0.5,5.9,0.7,6.9,0.7c1,0,1.7-0.1,2.2-0.2c0.5-0.1,0.9-0.3,1.2-0.5
		c0.3-0.2,0.6-0.4,0.7-0.5c0.1-0.1,0.4-0.1,0.7-0.1c0.5,0,0.7,0.4,0.6,1.1c-0.1,0.7-0.2,1.4-0.5,1.9c-0.3,0.5-0.7,1-1.1,1.3
		c-1,0.7-2.2,1-3.7,1c-1.5,0-3.3-0.1-5.4-0.3c-0.5,1.1-1,2.5-1.5,4.3l-2.2,8.1c1.5-0.2,2.7-0.4,3.5-0.4s1.5,0.1,2,0.2
		c0.5,0.2,1,0.4,1.4,0.7c0.9,0.6,1.4,1.4,1.4,2.3C62.9,33.1,62.5,33.5,61.6,33.5z"/>
	<path class="st0" d="M84.7,43c0,1.5,0.5,2.2,1.6,2.2c0.7,0,1.3-0.1,1.8-0.3c0.5-0.2,0.8-0.3,1-0.3c0.3,0,0.5,0.2,0.5,0.5
		c0,1.4-0.7,2.6-2.2,3.6c-1.5,1.1-3.1,1.3-4.7,0.8c-1.1-0.4-1.8-1.2-2.3-2.4c-0.2-0.6-0.4-1.2-0.4-1.7c0-0.8,0.1-1.7,0.2-2.7
		c-1.5,3.1-3.4,5.2-5.6,6.4c-0.9,0.5-1.8,0.7-2.9,0.7c-1,0-1.9-0.2-2.6-0.6c-0.7-0.4-1.4-1-1.9-1.7c-1.1-1.5-1.5-3.5-1.4-5.8
		c0.1-2.9,1-5.7,2.6-8.5c1.5-2.6,3.4-4.7,5.6-6.4c2.3-1.7,4.4-2.5,6.3-2.5c2,0,3.6,0.9,4.8,2.7c1.1-1.8,2.1-2.7,3-2.7
		c0.9,0,1.6,0.2,2.1,0.5c0.9,0.7,1.2,1.2,1,1.7c-4.1,8.4-6.2,13.6-6.3,15.6C84.8,42.4,84.7,42.7,84.7,43z M71.2,43.1
		c0,2,0.6,2.9,1.9,2.9c1,0,2.1-0.8,3.5-2.4c2.1-2.4,3.9-5.6,5.4-9.7c0.5-1.3,0.9-2.5,1.3-3.8c-0.1-1.1-0.5-1.9-1.4-2.4
		c-0.3-0.2-0.7-0.3-1.3-0.3c-0.6,0-1.3,0.2-2,0.6c-0.8,0.4-1.5,1-2.2,1.7c-0.7,0.7-1.4,1.6-2,2.6c-0.6,1-1.2,2.1-1.6,3.3
		C71.7,38.2,71.2,40.7,71.2,43.1z"/>
	<path class="st0" d="M93.1,48.9c-0.3-0.2-0.6-0.5-0.8-0.8c-0.2-0.3-0.3-0.6-0.3-0.8c0-0.2,0-0.5,0.1-0.8c0.1-0.3,0.2-0.7,0.4-1.2
		c3.3-8.2,5-13.7,5-16.5c0-0.8-0.3-1.3-0.8-1.7l-0.5-0.3c-0.1-0.1-0.2-0.3-0.2-0.6c0-0.3,0.1-0.6,0.3-0.8c0.2-0.3,0.5-0.5,0.8-0.7
		c0.7-0.4,1.4-0.6,2.2-0.6c0.7,0,1.3,0.1,1.7,0.2c0.4,0.2,0.8,0.4,1.1,0.7c0.6,0.6,0.9,1.2,0.9,1.9c0,0.7-0.1,1.3-0.2,2
		c-0.2,0.7-0.3,1.3-0.5,2c-0.2,0.6-0.4,1.3-0.6,1.8c-0.2,0.6-0.4,1-0.4,1.3c-0.1,0.6-0.2,0.9-0.1,1.1c0.4-0.3,0.6-0.7,0.7-1l1-1.8
		c2.1-3.8,4.2-6.3,6.2-7.6c0.6-0.3,1.3-0.5,2.1-0.5c0.8,0,1.5,0.3,2,0.9c0.5,0.6,0.8,1.2,0.8,1.9c0,0.7,0,1.3-0.1,1.7
		s-0.3,0.9-0.5,1.3c-0.5,0.9-1.2,1.4-2,1.4c-0.2,0-0.4-0.1-0.6-0.2l-0.5-0.5c-0.5-0.5-1.1-0.7-1.6-0.7c-0.5,0-1.1,0.3-1.8,1
		c-0.7,0.7-1.4,1.5-2.2,2.5c-2.6,3.4-4.7,7.2-6.3,11.4l-1.1,2.8c-0.3,0.7-0.5,1.2-0.7,1.5c-0.2,0.3-0.5,0.5-0.9,0.5
		s-0.8-0.1-1.2-0.2S93.4,49.2,93.1,48.9z"/>
	<path class="st0" d="M113.5,48.9c-0.3-0.2-0.6-0.5-0.8-0.8c-0.2-0.3-0.3-0.6-0.3-0.8c0-0.2,0-0.5,0.1-0.8c0.1-0.3,0.2-0.7,0.4-1.2
		c3.3-8.2,5-13.7,5-16.5c0-0.8-0.3-1.3-0.8-1.7l-0.5-0.3c-0.1-0.1-0.2-0.3-0.2-0.6c0-0.3,0.1-0.6,0.3-0.8c0.2-0.3,0.5-0.5,0.8-0.7
		c0.7-0.4,1.4-0.6,2.2-0.6c0.7,0,1.3,0.1,1.7,0.2c0.4,0.2,0.8,0.4,1.1,0.7c0.6,0.6,0.9,1.2,0.9,1.9c0,0.7-0.1,1.3-0.2,2
		c-0.2,0.7-0.3,1.3-0.5,2c-0.2,0.6-0.4,1.3-0.6,1.8c-0.2,0.6-0.4,1-0.4,1.3c-0.1,0.6-0.2,0.9-0.1,1.1c0.4-0.3,0.6-0.7,0.7-1l1-1.8
		c2.1-3.8,4.2-6.3,6.2-7.6c0.6-0.3,1.3-0.5,2.1-0.5c0.8,0,1.5,0.3,2,0.9c0.5,0.6,0.8,1.2,0.8,1.9c0,0.7,0,1.3-0.1,1.7
		s-0.3,0.9-0.5,1.3c-0.5,0.9-1.2,1.4-2,1.4c-0.2,0-0.4-0.1-0.6-0.2l-0.5-0.5c-0.5-0.5-1.1-0.7-1.6-0.7c-0.5,0-1.1,0.3-1.8,1
		c-0.7,0.7-1.4,1.5-2.2,2.5c-2.6,3.4-4.7,7.2-6.3,11.4l-1.1,2.8c-0.3,0.7-0.5,1.2-0.7,1.5c-0.2,0.3-0.5,0.5-0.9,0.5
		s-0.8-0.1-1.2-0.2S113.8,49.2,113.5,48.9z"/>
	<path class="st0" d="M152.6,43c0,1.5,0.5,2.2,1.6,2.2c0.7,0,1.3-0.1,1.8-0.3c0.5-0.2,0.8-0.3,1-0.3c0.3,0,0.5,0.2,0.5,0.5
		c0,1.4-0.7,2.6-2.2,3.6c-1.5,1.1-3.1,1.3-4.7,0.8c-1.1-0.4-1.8-1.2-2.3-2.4c-0.2-0.6-0.4-1.2-0.4-1.7c0-0.8,0.1-1.7,0.2-2.7
		c-1.5,3.1-3.4,5.2-5.6,6.4c-0.9,0.5-1.8,0.7-2.9,0.7c-1,0-1.9-0.2-2.6-0.6c-0.7-0.4-1.4-1-1.9-1.7c-1.1-1.5-1.5-3.5-1.4-5.8
		c0.1-2.9,1-5.7,2.6-8.5c1.5-2.6,3.4-4.7,5.6-6.4c2.3-1.7,4.4-2.5,6.3-2.5c2,0,3.6,0.9,4.8,2.7c1.1-1.8,2.1-2.7,3-2.7
		c0.9,0,1.6,0.2,2.1,0.5c0.9,0.7,1.2,1.2,1,1.7c-4.1,8.4-6.2,13.6-6.3,15.6C152.6,42.4,152.6,42.7,152.6,43z M139,43.1
		c0,2,0.6,2.9,1.9,2.9c1,0,2.1-0.8,3.5-2.4c2.1-2.4,3.9-5.6,5.4-9.7c0.5-1.3,0.9-2.5,1.3-3.8c-0.1-1.1-0.5-1.9-1.4-2.4
		c-0.3-0.2-0.7-0.3-1.3-0.3c-0.6,0-1.3,0.2-2,0.6c-0.8,0.4-1.5,1-2.2,1.7c-0.7,0.7-1.4,1.6-2,2.6c-0.6,1-1.2,2.1-1.6,3.3
		C139.5,38.2,139,40.7,139,43.1z"/>
	<path class="st0" d="M165.2,47.2c0,0.2-0.4,1.5-1.1,3.9c-0.7,2.3-1.2,4.2-1.7,5.5c-1,3.1-1.9,5-2.5,5.7c-0.5,0.6-1.2,0.9-2,0.9
		c-0.9,0-1.6-0.5-2.1-1.4c-0.1-0.3-0.2-0.5-0.2-0.9s0.2-1,0.7-2.1c1.3-2.7,3-8,5.2-15.9c0.9-3.1,1.4-5.2,1.7-6.4l0.8-3.1
		c0.5-2,0.8-3.4,0.9-4.1c0.1-0.7,0-1.2-0.1-1.5c-0.2-0.3-0.4-0.5-0.6-0.7c-0.2-0.2-0.4-0.3-0.6-0.4c-0.2-0.1-0.3-0.3-0.2-0.6
		c0-0.3,0.2-0.6,0.4-0.8c0.2-0.3,0.5-0.5,0.9-0.6c0.7-0.3,1.5-0.5,2.2-0.5c0.7,0,1.3,0.1,1.7,0.3c0.4,0.2,0.8,0.4,1,0.7
		c0.6,0.6,0.8,1.3,0.8,1.9c-0.2,1.3-0.3,2.3-0.5,3.2c2.8-4.1,5.8-6.1,8.9-6.1c2.8,0,4.6,1.4,5.6,4.3c0.3,1,0.5,2.2,0.5,3.7
		c0,1.4-0.2,2.9-0.7,4.4c-0.4,1.5-1,2.8-1.8,4.1c-0.7,1.3-1.6,2.5-2.6,3.6c-1,1.1-2,2.1-3.1,2.9c-2.3,1.7-4.6,2.5-6.6,2.5
		C167.8,49.8,166.2,48.9,165.2,47.2z M169,36.8c-0.6,1.1-1.1,2.3-1.4,3.4c-0.4,1.1-0.5,2.2-0.5,3.1c0,0.9,0.2,1.7,0.6,2.3
		c0.4,0.6,1,0.9,1.8,0.9c0.8,0,1.6-0.2,2.4-0.6c0.8-0.4,1.6-1,2.3-1.7c0.7-0.7,1.4-1.6,2.1-2.6c0.6-1,1.2-2,1.7-3.1
		c1-2.4,1.5-4.7,1.5-6.9c0-1.2-0.2-2.1-0.5-2.7c-0.3-0.7-0.8-1-1.4-1c-0.6,0-1.3,0.2-2,0.7c-0.7,0.5-1.4,1.2-2.2,2
		c-0.8,0.8-1.5,1.8-2.3,2.8C170.2,34.5,169.6,35.6,169,36.8z"/>
	<path class="st0" d="M192.7,47.2c0,0.2-0.4,1.5-1.1,3.9c-0.7,2.3-1.2,4.2-1.7,5.5c-1,3.1-1.9,5-2.5,5.7c-0.5,0.6-1.2,0.9-2,0.9
		c-0.9,0-1.6-0.5-2.1-1.4c-0.1-0.3-0.2-0.5-0.2-0.9s0.2-1,0.7-2.1c1.3-2.7,3-8,5.2-15.9c0.9-3.1,1.4-5.2,1.7-6.4l0.8-3.1
		c0.5-2,0.8-3.4,0.9-4.1c0.1-0.7,0-1.2-0.1-1.5c-0.2-0.3-0.4-0.5-0.6-0.7c-0.2-0.2-0.4-0.3-0.6-0.4c-0.2-0.1-0.3-0.3-0.2-0.6
		c0-0.3,0.2-0.6,0.4-0.8c0.2-0.3,0.5-0.5,0.9-0.6c0.7-0.3,1.5-0.5,2.2-0.5c0.7,0,1.3,0.1,1.7,0.3c0.4,0.2,0.8,0.4,1,0.7
		c0.6,0.6,0.8,1.3,0.8,1.9c-0.2,1.3-0.3,2.3-0.5,3.2c2.8-4.1,5.8-6.1,8.9-6.1c2.8,0,4.6,1.4,5.6,4.3c0.3,1,0.5,2.2,0.5,3.7
		c0,1.4-0.2,2.9-0.7,4.4c-0.4,1.5-1,2.8-1.8,4.1c-0.7,1.3-1.6,2.5-2.6,3.6c-1,1.1-2,2.1-3.1,2.9c-2.3,1.7-4.6,2.5-6.6,2.5
		C195.3,49.8,193.8,48.9,192.7,47.2z M196.5,36.8c-0.6,1.1-1.1,2.3-1.4,3.4c-0.4,1.1-0.5,2.2-0.5,3.1c0,0.9,0.2,1.7,0.6,2.3
		c0.4,0.6,1,0.9,1.8,0.9c0.8,0,1.6-0.2,2.4-0.6c0.8-0.4,1.6-1,2.3-1.7c0.7-0.7,1.4-1.6,2.1-2.6c0.6-1,1.2-2,1.7-3.1
		c1-2.4,1.5-4.7,1.5-6.9c0-1.2-0.2-2.1-0.5-2.7c-0.3-0.7-0.8-1-1.4-1c-0.6,0-1.3,0.2-2,0.7c-0.7,0.5-1.4,1.2-2.2,2
		c-0.8,0.8-1.5,1.8-2.3,2.8C197.8,34.5,197.1,35.6,196.5,36.8z"/>
</g>
<path class="st0" d="M19.4,19.5l0-2.6l1.4,0c1.8,0,3.6-0.7,4.9-1.9c1.3-1.2,2-2.9,2-4.6l0-1.3L8.4,9l0,1.3c0,1.7,0.7,3.4,2,4.6
	c1.3,1.3,3.1,1.9,4.9,2l1.4,0l0,2.6C7.4,20.1,0,27.3,0,36.1C0,45.4,8,53,17.9,53c9.9,0,18-7.5,18-16.8C36,27.4,28.7,20.1,19.4,19.5z
	 M11.4,11.5l13.4,0c-0.6,1.5-2.1,2.7-3.9,2.7l-5.5,0C13.5,14.2,11.9,13.1,11.4,11.5z M2.8,37.4l5.5,0C8.4,39.2,8.6,41,9,42.7l-4.6,0
	C3.6,41.1,3,39.3,2.8,37.4z M19.4,27.1l0-4.8c1.2,0.5,2.3,1.8,3.2,3.5c0.2,0.4,0.4,0.9,0.6,1.3L19.4,27.1z M24.1,29.7
	c0.4,1.6,0.7,3.3,0.7,5.2l-5.5,0l0-5.2L24.1,29.7z M16.6,22.3l0,4.8l-3.9,0c0.2-0.5,0.4-0.9,0.6-1.3C14.3,24,15.5,22.8,16.6,22.3z
	 M16.6,29.7l0,5.2l-5.5,0c0.1-1.8,0.3-3.6,0.8-5.2L16.6,29.7z M8.3,34.8l-5.5,0C3,33,3.6,31.2,4.4,29.7l4.6,0
	C8.6,31.3,8.4,33.1,8.3,34.8z M11.1,37.4l5.5,0l0,5.2l-4.7,0C11.4,41,11.2,39.3,11.1,37.4z M16.6,45.3l0,4.8
	c-1.2-0.6-2.3-1.8-3.2-3.5c-0.2-0.4-0.4-0.8-0.6-1.3L16.6,45.3z M19.3,50.1l0-4.8l3.9,0c-0.2,0.5-0.4,0.9-0.6,1.3
	C21.7,48.3,20.5,49.6,19.3,50.1z M19.4,42.7l0-5.3l5.5,0c-0.1,1.8-0.4,3.6-0.8,5.3L19.4,42.7z M27.6,37.5l5.5,0
	c-0.2,1.9-0.8,3.7-1.6,5.3l-4.6,0C27.3,41.1,27.6,39.3,27.6,37.5z M27.7,34.9c-0.1-1.8-0.3-3.5-0.7-5.2l4.6,0
	c0.9,1.6,1.4,3.3,1.6,5.2L27.7,34.9z M29.7,27.2l-3.5,0c-0.3-0.9-0.7-1.7-1.1-2.5c-0.3-0.5-0.6-1-0.9-1.4
	C26.4,24.1,28.3,25.5,29.7,27.2z M11.8,23.2c-0.3,0.4-0.6,0.9-0.9,1.4c-0.4,0.8-0.8,1.6-1.1,2.5l-3.5,0C7.8,25.4,9.6,24.1,11.8,23.2
	z M6.3,45.2l3.5,0c0.3,0.9,0.7,1.7,1.1,2.4c0.3,0.5,0.6,1,0.9,1.5C9.6,48.3,7.7,46.9,6.3,45.2z M24.2,49.2c0.3-0.5,0.6-0.9,0.9-1.5
	c0.4-0.8,0.8-1.6,1.1-2.5l3.5,0C28.2,46.9,26.3,48.3,24.2,49.2z"/>
</svg>
