<?xml version="1.0" encoding="utf-8"?>
<!-- Generator: Adobe Illustrator 22.1.0, SVG Export Plug-In . SVG Version: 6.00 Build 0)  -->
<svg version="1.1" id="Layer_1" xmlns="http://www.w3.org/2000/svg" xmlns:xlink="http://www.w3.org/1999/xlink" x="0px" y="0px"
	 viewBox="0 0 67 19" style="enable-background:new 0 0 67 19;" xml:space="preserve">
<style type="text/css">
	.st0{fill:#E8991A;}
	.st1{font-family:'Courgette-Regular';}
	.st2{font-size:16.6199px;}
</style>
<text transform="matrix(0.9274 0 0 1 12.7695 14.4561)" class="st0 st1 st2">Farrapp</text>
<path class="st0" d="M7,4.5l0-0.9l0.4,0c0.6,0,1.1-0.2,1.5-0.6c0.4-0.4,0.6-1,0.6-1.5l0-0.4l-6,0l0,0.4c0,0.6,0.2,1.1,0.6,1.5
	c0.4,0.4,0.9,0.6,1.5,0.6l0.4,0l0,0.9C3.3,4.7,1,7.1,1,10c0,3.1,2.5,5.6,5.5,5.6s5.6-2.5,5.6-5.6C12.1,7.1,9.8,4.7,7,4.5z M4.5,1.8
	l4.1,0C8.4,2.4,8,2.7,7.4,2.7l-1.7,0C5.2,2.7,4.7,2.3,4.5,1.8z M1.9,10.4l1.7,0c0,0.6,0.1,1.2,0.2,1.7l-1.4,0
	C2.1,11.6,1.9,11.1,1.9,10.4z M7,7l0-1.6C7.3,5.6,7.7,6,8,6.6C8,6.7,8.1,6.9,8.2,7L7,7z M8.4,7.9C8.6,8.4,8.6,9,8.7,9.6L7,9.6l0-1.7
	L8.4,7.9z M6.1,5.4l0,1.6L4.9,7C5,6.9,5,6.7,5.1,6.6C5.4,6,5.8,5.6,6.1,5.4z M6.1,7.9l0,1.7l-1.7,0c0-0.6,0.1-1.2,0.2-1.7L6.1,7.9z
	 M3.6,9.6l-1.7,0C1.9,9,2.1,8.4,2.4,7.9l1.4,0C3.7,8.4,3.6,9,3.6,9.6z M4.4,10.4l1.7,0l0,1.7l-1.5,0C4.5,11.6,4.4,11,4.4,10.4z
	 M6.1,13l0,1.6c-0.4-0.2-0.7-0.6-1-1.2C5,13.3,5,13.2,4.9,13L6.1,13z M7,14.6L7,13l1.2,0C8.1,13.2,8,13.3,8,13.5
	C7.7,14.1,7.3,14.5,7,14.6z M7,12.2l0-1.7l1.7,0c0,0.6-0.1,1.2-0.2,1.7L7,12.2z M9.5,10.4l1.7,0c-0.1,0.6-0.2,1.2-0.5,1.7l-1.4,0
	C9.4,11.6,9.5,11,9.5,10.4z M9.5,9.6c0-0.6-0.1-1.2-0.2-1.7l1.4,0C11,8.4,11.2,9,11.2,9.6L9.5,9.6z M10.2,7L9.1,7
	C9,6.7,8.9,6.4,8.7,6.2C8.7,6,8.6,5.9,8.5,5.7C9.1,6,9.7,6.5,10.2,7z M4.6,5.7C4.5,5.9,4.4,6,4.4,6.2C4.2,6.4,4.1,6.7,4,7L2.9,7
	C3.4,6.5,4,6,4.6,5.7z M2.9,13L4,13c0.1,0.3,0.2,0.6,0.3,0.8c0.1,0.2,0.2,0.3,0.3,0.5C4,14,3.4,13.6,2.9,13z M8.4,14.3
	c0.1-0.1,0.2-0.3,0.3-0.5C8.8,13.6,9,13.3,9.1,13l1.1,0C9.7,13.6,9.1,14,8.4,14.3z"/>
</svg>
