<svg version="1.1" id="Capa_1" xmlns="http://www.w3.org/2000/svg" xmlns:xlink="http://www.w3.org/1999/xlink" x="0px" y="0px"
	 width="1168.442px" height="376.481px" viewBox="0 0 1168.442 376.481" style="enable-background:new 0 0 1168.442 376.481;"
	 xml:space="preserve">
<style type="text/css">
<![CDATA[
	.st0{fill:none;}
	.st1{fill:#fff;stroke:#FFFFFF;stroke-width:3;stroke-miterlimit:10;}
]]>
</style>
<g>
	<path class="st1" d="M155.138,167.135c-3.136-0.106-6.403-0.296-9.808-0.567c-3.404-0.269-7.432-0.458-12.077-0.567
		c-10.16-0.215-21.183,0.218-33.07,1.297c-2.703,9.296-7.161,20.725-13.374,34.286c-6.216,13.564-12.348,25.046-18.399,34.448
		c-12.969,20.102-26.155,32.531-39.555,37.285c-1.945,0.755-3.918,1.135-5.917,1.135c-2.001,0-3.81-0.352-5.431-1.054
		s-2.974-1.593-4.053-2.675c-2.27-2.052-3.404-4.321-3.404-6.809c0-2.485,0.811-4.321,2.432-5.512
		c15.345-11.13,31.125-39.175,47.336-84.135c-1.19,0.324-2.378,0.648-3.566,0.973c-1.19,0.324-2.216,0.648-3.08,0.973
		c-0.866,0.324-1.864,0.486-2.999,0.486s-2.378-0.35-3.729-1.054c-1.353-0.702-2.568-1.54-3.647-2.513
		c-2.378-2.161-3.566-4.268-3.566-6.322c0-2.052,0.945-3.972,2.837-5.755c1.89-1.783,4.24-3.485,7.052-5.106
		c5.188-3.024,11.725-5.836,19.615-8.43l8.754-27.234c10.266-31.88,20.102-53.982,29.504-66.303
		c-8.863-0.755-15.4-1.135-19.615-1.135c-12.753,0-21.94,1.783-27.559,5.35c-5.512,3.566-9.377,7.432-11.591,11.591
		c-2.216,4.162-3.379,7.052-3.485,8.673c-0.324,3.027-1.297,4.944-2.918,5.755s-3.594,1.216-5.917,1.216
		c-2.325,0-4.729-0.836-7.214-2.513c-2.487-1.674-4.539-3.81-6.16-6.403c-3.46-5.294-4.81-11.267-4.053-17.913
		c0.755-6.646,2.943-12.374,6.565-17.184c3.62-4.808,7.916-8.726,12.888-11.753c9.185-5.618,18.886-8.43,29.099-8.43
		s19.884,0.514,29.018,1.54c9.131,1.028,18.237,2.188,27.315,3.485c24.099,3.242,39.446,4.863,46.039,4.863
		c6.591,0,11.482-0.377,14.671-1.135c3.187-0.755,5.917-1.89,8.187-3.404c2.27-1.512,3.863-2.513,4.782-2.999
		c0.917-0.486,2.404-0.729,4.458-0.729c3.242,0,4.646,2.459,4.215,7.376c-0.433,4.919-1.621,9.134-3.566,12.645
		c-1.945,3.513-4.486,6.403-7.619,8.673c-6.378,4.648-14.483,6.971-24.316,6.971c-9.835,0-21.778-0.648-35.826-1.945
		c-3.566,7.242-6.971,16.753-10.213,28.531l-14.914,53.496c10.157-1.621,17.913-2.432,23.263-2.432s9.752,0.542,13.212,1.621
		c3.458,1.082,6.538,2.594,9.24,4.539c6.267,4.215,9.347,9.402,9.24,15.563C164.107,164.055,161.081,167.135,155.138,167.135z"/>
	<path class="st1" d="M308.98,230.195c0,9.944,3.511,14.914,10.537,14.914c4.863,0,8.888-0.755,12.077-2.27
		c3.187-1.512,5.322-2.27,6.403-2.27c2.27,0,3.404,1.19,3.404,3.566c0,9.296-4.863,17.292-14.59,23.992
		c-10.269,7.024-20.75,8.754-31.449,5.188c-7.026-2.485-12.214-7.834-15.563-16.049c-1.621-4.215-2.432-8.05-2.432-11.51
		c0-5.618,0.54-11.563,1.621-17.832c-10.051,20.535-22.533,34.691-37.447,42.473c-5.945,3.024-12.267,4.539-18.967,4.539
		c-6.702,0-12.51-1.378-17.427-4.134c-4.919-2.756-9.106-6.565-12.563-11.429c-7.026-10.157-10.213-22.911-9.564-38.258
		c0.648-19.235,6.322-38.096,17.021-56.576c9.833-17.29,22.262-31.394,37.285-42.311c15.021-11.13,29.071-16.697,42.148-16.697
		c13.075,0,23.612,5.998,31.611,17.994c7.457-11.996,14.048-17.994,19.777-17.994c6.16,0,10.806,1.135,13.941,3.404
		c5.942,4.324,8.05,8.105,6.322,11.348c-27.128,55.55-41.069,90.133-41.824,103.75C309.086,225.98,308.98,228.035,308.98,230.195z
		 M219.009,230.844c0,12.969,4.159,19.453,12.482,19.453c6.375,0,14.21-5.403,23.506-16.211
		c13.617-15.887,25.667-37.285,36.15-64.195c3.349-8.43,6.16-16.859,8.43-25.289c-0.433-7.348-3.513-12.751-9.24-16.211
		c-1.945-1.188-4.838-1.783-8.673-1.783c-3.837,0-8.323,1.406-13.455,4.215c-5.134,2.812-10.106,6.646-14.914,11.51
		c-4.81,4.863-9.296,10.618-13.455,17.265c-4.162,6.646-7.809,13.86-10.942,21.642C222.305,197.882,219.009,214.417,219.009,230.844
		z"/>
	<path class="st1" d="M364.259,269.426c-2.163-1.621-3.891-3.43-5.188-5.431c-1.297-1.999-2.001-3.729-2.107-5.188
		c-0.109-1.459,0.188-3.242,0.892-5.35c0.702-2.107,1.646-4.673,2.837-7.7c22.047-54.251,33.07-90.672,33.07-109.262
		c-0.324-5.188-2.107-8.86-5.35-11.023l-3.242-2.27c-0.973-0.755-1.487-2.08-1.54-3.972c-0.056-1.89,0.621-3.701,2.026-5.431
		c1.403-1.728,3.242-3.242,5.512-4.539c4.646-2.485,9.428-3.729,14.347-3.729c4.917,0,8.754,0.542,11.51,1.621
		c2.756,1.082,5.106,2.541,7.052,4.377c4.106,3.891,6.186,7.999,6.241,12.32c0.053,4.324-0.433,8.701-1.459,13.131
		c-1.028,4.433-2.244,8.782-3.647,13.05c-1.406,4.271-2.812,8.323-4.215,12.158c-1.406,3.837-2.325,6.674-2.756,8.511
		c-0.866,3.784-1.19,6.16-0.973,7.133c2.594-2.27,4.159-4.483,4.701-6.646l6.322-11.996c14.048-25.289,27.774-42.04,41.176-50.254
		c3.891-2.27,8.564-3.404,14.022-3.404c5.456,0,9.861,1.92,13.212,5.755c3.349,3.837,5.106,8.08,5.269,12.726
		c0.162,4.648-0.162,8.511-0.973,11.591s-2.026,5.973-3.647,8.673c-3.566,6.054-7.89,9.078-12.969,9.078
		c-1.406,0-2.703-0.486-3.891-1.459l-3.566-3.08c-3.566-3.133-6.999-4.701-10.294-4.701c-3.298,0-7.295,2.163-11.996,6.484
		c-4.701,4.324-9.592,9.889-14.671,16.697c-17.077,22.589-31.019,47.878-41.824,75.867l-7.133,18.805
		c-1.839,4.648-3.46,7.971-4.863,9.97c-1.406,1.999-3.485,2.999-6.241,2.999s-5.512-0.514-8.268-1.54
		S366.42,271.047,364.259,269.426z"/>
	<path class="st1" d="M499.621,269.426c-2.163-1.621-3.891-3.43-5.188-5.431c-1.297-1.999-2.001-3.729-2.107-5.188
		c-0.109-1.459,0.188-3.242,0.892-5.35c0.702-2.107,1.646-4.673,2.837-7.7c22.047-54.251,33.07-90.672,33.07-109.262
		c-0.324-5.188-2.107-8.86-5.35-11.023l-3.242-2.27c-0.973-0.755-1.487-2.08-1.54-3.972c-0.056-1.89,0.621-3.701,2.026-5.431
		c1.403-1.728,3.242-3.242,5.512-4.539c4.646-2.485,9.428-3.729,14.347-3.729c4.917,0,8.754,0.542,11.51,1.621
		c2.756,1.082,5.106,2.541,7.052,4.377c4.106,3.891,6.186,7.999,6.241,12.32c0.053,4.324-0.433,8.701-1.459,13.131
		c-1.028,4.433-2.244,8.782-3.647,13.05c-1.406,4.271-2.812,8.323-4.215,12.158c-1.406,3.837-2.325,6.674-2.756,8.511
		c-0.866,3.784-1.19,6.16-0.973,7.133c2.594-2.27,4.159-4.483,4.701-6.646l6.322-11.996c14.048-25.289,27.773-42.04,41.176-50.254
		c3.891-2.27,8.563-3.404,14.022-3.404c5.456,0,9.86,1.92,13.212,5.755c3.349,3.837,5.106,8.08,5.269,12.726
		c0.162,4.648-0.162,8.511-0.973,11.591s-2.026,5.973-3.647,8.673c-3.566,6.054-7.891,9.078-12.969,9.078
		c-1.406,0-2.703-0.486-3.891-1.459l-3.566-3.08c-3.566-3.133-6.999-4.701-10.294-4.701c-3.298,0-7.295,2.163-11.996,6.484
		c-4.701,4.324-9.593,9.889-14.671,16.697c-17.077,22.589-31.019,47.878-41.824,75.867l-7.133,18.805
		c-1.839,4.648-3.46,7.971-4.863,9.97c-1.406,1.999-3.485,2.999-6.241,2.999s-5.512-0.514-8.268-1.54
		S501.781,271.047,499.621,269.426z"/>
	<path class="st1" d="M759.482,230.195c0,9.944,3.511,14.914,10.537,14.914c4.863,0,8.888-0.755,12.077-2.27
		c3.187-1.512,5.321-2.27,6.403-2.27c2.27,0,3.404,1.19,3.404,3.566c0,9.296-4.863,17.292-14.59,23.992
		c-10.269,7.024-20.75,8.754-31.449,5.188c-7.026-2.485-12.214-7.834-15.563-16.049c-1.621-4.215-2.432-8.05-2.432-11.51
		c0-5.618,0.539-11.563,1.621-17.832c-10.051,20.535-22.533,34.691-37.447,42.473c-5.945,3.024-12.268,4.539-18.967,4.539
		c-6.702,0-12.511-1.378-17.427-4.134c-4.919-2.756-9.106-6.565-12.563-11.429c-7.026-10.157-10.213-22.911-9.564-38.258
		c0.648-19.235,6.322-38.096,17.021-56.576c9.833-17.29,22.262-31.394,37.285-42.311c15.021-11.13,29.07-16.697,42.148-16.697
		c13.075,0,23.612,5.998,31.611,17.994c7.457-11.996,14.048-17.994,19.777-17.994c6.16,0,10.806,1.135,13.941,3.404
		c5.942,4.324,8.05,8.105,6.322,11.348c-27.128,55.55-41.069,90.133-41.824,103.75C759.588,225.98,759.482,228.035,759.482,230.195z
		 M669.511,230.844c0,12.969,4.159,19.453,12.482,19.453c6.375,0,14.21-5.403,23.506-16.211
		c13.617-15.887,25.666-37.285,36.15-64.195c3.349-8.43,6.16-16.859,8.43-25.289c-0.434-7.348-3.514-12.751-9.24-16.211
		c-1.945-1.188-4.838-1.783-8.673-1.783c-3.838,0-8.323,1.406-13.455,4.215c-5.135,2.812-10.106,6.646-14.914,11.51
		c-4.811,4.863-9.296,10.618-13.455,17.265c-4.162,6.646-7.81,13.86-10.942,21.642C672.806,197.882,669.511,214.417,669.511,230.844
		z"/>
	<path class="st1" d="M843.13,257.916c-0.218,1.621-2.568,10.16-7.052,25.613c-4.486,15.453-8.242,27.721-11.267,36.799
		c-6.809,20.316-12.43,32.961-16.859,37.934c-3.566,3.891-7.888,5.836-12.969,5.836c-6.16,0-10.861-3.027-14.104-9.078
		c-0.973-1.73-1.459-3.647-1.459-5.755s1.621-6.675,4.863-13.698c8.539-17.832,19.939-52.957,34.205-105.371
		c5.727-20.75,9.509-34.854,11.348-42.311l5.188-20.264c3.349-13.399,5.321-22.505,5.917-27.315
		c0.593-4.808,0.296-8.212-0.892-10.213c-1.19-1.999-2.541-3.511-4.053-4.539c-1.515-1.026-2.918-1.917-4.215-2.675
		c-1.297-0.755-1.839-2.133-1.621-4.134c0.215-1.999,1.106-3.835,2.675-5.512c1.565-1.674,3.538-3.105,5.917-4.296
		c4.863-2.27,9.752-3.404,14.671-3.404c4.916,0,8.779,0.595,11.591,1.783c2.809,1.19,5.132,2.812,6.971,4.863
		c3.891,4.215,5.618,8.323,5.188,12.32c-1.082,8.323-2.27,15.456-3.566,21.398c18.911-26.91,38.526-40.365,58.846-40.365
		c18.48,0,30.854,9.564,37.123,28.693c2.16,6.702,3.242,14.861,3.242,24.479c0,9.62-1.459,19.266-4.377,28.937
		c-2.918,9.673-6.864,18.833-11.834,27.478c-4.973,8.647-10.755,16.616-17.346,23.911c-6.594,7.295-13.564,13.645-20.912,19.048
		c-15.563,11.241-30.262,16.859-44.094,16.859C860.42,274.938,850.045,269.264,843.13,257.916z M868.176,188.776
		c-3.946,7.619-7.133,15.213-9.564,22.776c-2.432,7.566-3.647,14.483-3.647,20.75c0,6.269,1.35,11.429,4.053,15.481
		c2.7,4.053,6.699,6.079,11.996,6.079c5.294,0,10.563-1.431,15.806-4.296c5.24-2.862,10.319-6.728,15.238-11.591
		c4.916-4.863,9.509-10.563,13.779-17.103c4.268-6.538,7.969-13.48,11.104-20.831c6.809-15.993,10.213-31.178,10.213-45.553
		c0-7.781-1.028-13.833-3.08-18.156c-2.055-4.321-5.216-6.484-9.483-6.484c-4.271,0-8.729,1.649-13.374,4.944
		c-4.648,3.298-9.512,7.675-14.59,13.131c-5.081,5.458-10.106,11.728-15.076,18.805C876.578,173.809,872.12,181.157,868.176,188.776
		z"/>
	<path class="st1" d="M1025.99,257.916c-0.218,1.621-2.568,10.16-7.052,25.613c-4.486,15.453-8.242,27.721-11.267,36.799
		c-6.809,20.316-12.43,32.961-16.859,37.934c-3.566,3.891-7.888,5.836-12.969,5.836c-6.16,0-10.861-3.027-14.104-9.078
		c-0.973-1.73-1.459-3.647-1.459-5.755s1.621-6.675,4.863-13.698c8.539-17.832,19.939-52.957,34.205-105.371
		c5.727-20.75,9.509-34.854,11.348-42.311l5.188-20.264c3.349-13.399,5.321-22.505,5.917-27.315
		c0.593-4.808,0.296-8.212-0.892-10.213c-1.19-1.999-2.541-3.511-4.053-4.539c-1.515-1.026-2.918-1.917-4.215-2.675
		c-1.297-0.755-1.839-2.133-1.621-4.134c0.215-1.999,1.106-3.835,2.675-5.512c1.565-1.674,3.538-3.105,5.917-4.296
		c4.863-2.27,9.752-3.404,14.671-3.404c4.916,0,8.779,0.595,11.591,1.783c2.809,1.19,5.132,2.812,6.971,4.863
		c3.891,4.215,5.618,8.323,5.188,12.32c-1.082,8.323-2.27,15.456-3.566,21.398c18.911-26.91,38.526-40.365,58.846-40.365
		c18.48,0,30.854,9.564,37.123,28.693c2.16,6.702,3.242,14.861,3.242,24.479c0,9.62-1.459,19.266-4.377,28.937
		c-2.918,9.673-6.864,18.833-11.834,27.478c-4.973,8.647-10.755,16.616-17.346,23.911c-6.594,7.295-13.564,13.645-20.912,19.048
		c-15.563,11.241-30.262,16.859-44.094,16.859C1043.28,274.938,1032.905,269.264,1025.99,257.916z M1051.036,188.776
		c-3.946,7.619-7.133,15.213-9.564,22.776c-2.432,7.566-3.647,14.483-3.647,20.75c0,6.269,1.35,11.429,4.053,15.481
		c2.7,4.053,6.699,6.079,11.996,6.079c5.294,0,10.563-1.431,15.806-4.296c5.24-2.862,10.319-6.728,15.238-11.591
		c4.916-4.863,9.509-10.563,13.779-17.103c4.268-6.538,7.969-13.48,11.104-20.831c6.809-15.993,10.213-31.178,10.213-45.553
		c0-7.781-1.028-13.833-3.08-18.156c-2.055-4.321-5.216-6.484-9.483-6.484c-4.271,0-8.729,1.649-13.374,4.944
		c-4.648,3.298-9.512,7.675-14.59,13.131c-5.081,5.458-10.106,11.728-15.076,18.805
		C1059.437,173.809,1054.979,181.157,1051.036,188.776z"/>
</g>
</svg>
